<svg width="1200" height="800" xmlns="http://www.w3.org/2000/svg">
  <rect width="100%" height="100%" fill="#fdf6ef"/>
  <circle cx="0" cy="0" r="60" fill="#f7e7d8" opacity="0.4"/>
  <circle cx="0" cy="200" r="60" fill="#f7e7d8" opacity="0.4"/>
  <circle cx="0" cy="400" r="60" fill="#f7e7d8" opacity="0.4"/>
  <circle cx="0" cy="600" r="60" fill="#f7e7d8" opacity="0.4"/>
  <circle cx="200" cy="0" r="60" fill="#f7e7d8" opacity="0.4"/>
  <circle cx="200" cy="200" r="60" fill="#f7e7d8" opacity="0.4"/>
  <circle cx="200" cy="400" r="60" fill="#f7e7d8" opacity="0.4"/>
  <circle cx="200" cy="600" r="60" fill="#f7e7d8" opacity="0.4"/>
  <circle cx="400" cy="0" r="60" fill="#f7e7d8" opacity="0.4"/>
  <circle cx="400" cy="200" r="60" fill="#f7e7d8" opacity="0.4"/>
  <circle cx="400" cy="400" r="60" fill="#f7e7d8" opacity="0.4"/>
  <circle cx="400" cy="600" r="60" fill="#f7e7d8" opacity="0.4"/>
  <circle cx="600" cy="0" r="60" fill="#f7e7d8" opacity="0.4"/>
  <circle cx="600" cy="200" r="60" fill="#f7e7d8" opacity="0.4"/>
  <circle cx="600" cy="400" r="60" fill="#f7e7d8" opacity="0.4"/>
  <circle cx="600" cy="600" r="60" fill="#f7e7d8" opacity="0.4"/>
  <circle cx="800" cy="0" r="60" fill="#f7e7d8" opacity="0.4"/>
  <circle cx="800" cy="200" r="60" fill="#f7e7d8" opacity="0.4"/>
  <circle cx="800" cy="400" r="60" fill="#f7e7d8" opacity="0.4"/>
  <circle cx="800" cy="600" r="60" fill="#f7e7d8" opacity="0.4"/>
  <circle cx="1000" cy="0" r="60" fill="#f7e7d8" opacity="0.4"/>
  <circle cx="1000" cy="200" r="60" fill="#f7e7d8" opacity="0.4"/>
  <circle cx="1000" cy="400" r="60" fill="#f7e7d8" opacity="0.4"/>
  <circle cx="1000" cy="600" r="60" fill="#f7e7d8" opacity="0.4"/>
</svg>
